/* XPM */
static char *d55efbfe9c7147a8a3b79eb741808d1dn7Tm23Dhk6xaoed7[] = {
/* columns rows colors chars-per-pixel */
"32 32 210 2 ",
"   c #040300",
".  c #0B0001",
"X  c #0A0D08",
"o  c #140001",
"O  c #1B0100",
"+  c #160B0B",
"@  c #1F160D",
"#  c #02021C",
"$  c #19071B",
"%  c #240101",
"&  c #2A0000",
"*  c #270905",
"=  c #350100",
"-  c #3D0000",
";  c #3B1107",
":  c #230617",
">  c #390516",
",  c #3C1918",
"<  c #232517",
"1  c #0B0020",
"2  c #180927",
"3  c #1C1A29",
"4  c #1E1930",
"5  c #380027",
"6  c #3A1034",
"7  c #34112E",
"8  c #2F2E2F",
"9  c #3A2C25",
"0  c #450103",
"q  c #4C0000",
"w  c #45070D",
"e  c #530002",
"r  c #5D0201",
"t  c #5B0A02",
"y  c #56090A",
"u  c #4E0017",
"i  c #5C0912",
"p  c #481210",
"a  c #531212",
"s  c #52151A",
"d  c #5B1417",
"f  c #630001",
"g  c #6B0000",
"h  c #6C0C02",
"j  c #620008",
"k  c #69060C",
"l  c #700000",
"z  c #73000C",
"x  c #7C010C",
"c  c #7B0705",
"v  c #661307",
"b  c #771909",
"n  c #660B17",
"m  c #720413",
"M  c #7E0316",
"N  c #760D19",
"B  c #66171C",
"V  c #7F1315",
"C  c #7E191F",
"Z  c #4A231C",
"A  c #6A210E",
"S  c #72231F",
"D  c #450929",
"F  c #5D1327",
"G  c #7B1C22",
"H  c #680B26",
"J  c #5A2D28",
"K  c #76263F",
"L  c #76323F",
"P  c #63283C",
"I  c #43402F",
"U  c #4E4139",
"Y  c #00004E",
"T  c #0B0055",
"R  c #39314B",
"E  c #35384B",
"W  c #3E2F5A",
"Q  c #643D42",
"!  c #743046",
"~  c #574B59",
"^  c #564064",
"/  c #424475",
"(  c #744879",
")  c #8B0002",
"_  c #880604",
"`  c #940000",
"'  c #950B03",
"]  c #9B0902",
"[  c #970B09",
"{  c #980107",
"}  c #8B1106",
"|  c #9E1303",
" . c #8F0A14",
".. c #870814",
"X. c #9F0716",
"o. c #9A0618",
"O. c #9D1112",
"+. c #831514",
"@. c #A50301",
"#. c #AB0200",
"$. c #AB000D",
"%. c #AC0B0C",
"&. c #A4090B",
"*. c #B30102",
"=. c #BD0003",
"-. c #B0000D",
";. c #B90C0C",
":. c #B30A0F",
">. c #AC1C0C",
",. c #A31B0F",
"<. c #BB150A",
"1. c #AB0E13",
"2. c #A30011",
"3. c #BD0314",
"4. c #B40A15",
"5. c #BB0E15",
"6. c #B90619",
"7. c #A91916",
"8. c #B01510",
"9. c #B41913",
"0. c #BA1A1E",
"q. c #B81A17",
"w. c #8F291B",
"e. c #9F2319",
"r. c #A82300",
"t. c #851821",
"y. c #951B27",
"u. c #A31725",
"i. c #AD1B27",
"p. c #B11521",
"a. c #BE1327",
"s. c #BC1729",
"d. c #B81C26",
"f. c #B80D31",
"g. c #B11C32",
"h. c #952727",
"j. c #8F2730",
"k. c #9C2D33",
"l. c #8D3038",
"z. c #973639",
"x. c #A82325",
"c. c #BA2122",
"v. c #B32F2B",
"b. c #BD2F23",
"n. c #B0372C",
"m. c #A0353F",
"M. c #B9363A",
"N. c #C10004",
"B. c #C70904",
"V. c #C81608",
"C. c #D71206",
"Z. c #C30919",
"A. c #C11314",
"S. c #CF131F",
"D. c #C71715",
"F. c #D41315",
"G. c #E7120C",
"H. c #C5211F",
"J. c #D2221E",
"K. c #D22312",
"L. c #E1261F",
"P. c #CA1E26",
"I. c #C51C29",
"U. c #CF1D3F",
"Y. c #D21229",
"T. c #C0272A",
"R. c #C8333A",
"E. c #D73A35",
"W. c #D62A2F",
"Q. c #B02F45",
"!. c #AA3E56",
"~. c #C93243",
"^. c #D83550",
"/. c #E03548",
"(. c #E43F50",
"). c #F43850",
"_. c #EC3063",
"`. c #FF3565",
"'. c #9A5659",
"]. c #8B5857",
"[. c #AC444D",
"{. c #AA5960",
"}. c #9D6362",
"|. c #A16366",
" X c #AC747D",
".X c #DB4A51",
"XX c #CD4B55",
"oX c #D75A62",
"OX c #C06F76",
"+X c #3B418F",
"@X c #5E5894",
"#X c #5850B5",
"$X c #7141BB",
"%X c #6147B4",
"&X c #6D70A3",
"*X c #87709A",
"=X c #8E7BB3",
"-X c #C46DCE",
";X c #9886B2",
":X c #A591AD",
">X c #B38BBF",
",X c #C6A6BE",
"<X c #AB88C2",
"1X c #9EA1D6",
"2X c #B0ABC2",
"3X c #A498E2",
"4X c #B0A4E6",
"5X c #D099C3",
"6X c #C791DD",
"7X c #D2A2D2",
/* pixels */
"^ ^ ^ ^ ^ ^ ^ ^ ^ ^ 8 8 8 ^ ^ ^ ^ ^ ^ ^ ^ ^ ^ ^ ^ 8 8 8 ^ ^ ^ ^ ",
"^ ^ ^ W ^ ^ ^ ^ ^ ^ I . o % O O & O . 9 ^ ^ W ^ ^ ^ 8 ^ ^ ^ ^ ^ ",
"W W W W W ^ ^ W O a B v k k t.Q.m.G S t - J W W ^ ^ 8 ^ ^ W W ^ ",
"W W W R W W W s N  .o.X.p.s.Z.3.$.d.c.d.i.e Q W R ^ 8 ^ R W W W ",
"W W R R W W , e ) $.6.6.$.*.=.N.N.B.=.*.Y.d.i O R R 8 R R R W W ",
"R R R R R R & t.) 5.P.0.1.%.5.J.G.C.L.F.N.Z.y.& R R 8 R R R R W ",
"R R R R R X p c ] 8.] ) [ | ' | C.B.@.&.W.Z.%.z.O 8 8 8 R R R R ",
"8 8 8 8 8 o i x.` 9.>.] 8.9.>.' B.K.` O.c.B.@._ O 8 8 8 8 8 8 8 ",
"^ ^ 8 8 8 & N 1.A.D.@.H.A.#.0.` V.V.I.d.T.#.D.e.& ^ ^ ^ ^ ^ ^ ^ ",
"^ ^ ^ 8 ^ % N ` *.<.#.;.#.6.~...,.I.Y.2.s.1.b.h.O W ^ ^ ^ W ^ ^ ",
"W W ^ 8 ^ O G 2.S.*.@.%.I.g.j F a z f.U.g.g r =   W W ^ W W W W ",
"R W W 8 W O n X.#.;.9.0.u.j ! R R P M X.z L W W E W W W W W W W ",
"R R R 8 R U 0  .4.A.` [ x H R R R :XB g n ,XR 1X;X~ W R R R R R ",
"R R 8 8 8 R * C ) @.&.v.x u R / Y ;Xw r a R +XT 6X: R R R R R R ",
"8 8 8 8 8 8   y  .&.7.7.M w 8 @X%X<X- b - 8 #X$X-X5 8 8 8 8 8 8 ",
"^ ^ ^ ^ ^ ^ ^ $ F m { 4.P.) 0 ^ ^ q _ E.` r ^ ^ 7 ^ 8 8 8 ^ ^ ^ ",
"^ ^ W W ^ ^ ^ ^ . ; e } | 7.V y e k..X4.R.z.> $ ^ ^ ^ 8 ^ ^ ^ ^ ",
"W W W W W ^ W ^ ^ 8 o t r.>.R.^.{.[.XXR.oXl. Xo W ^ ^ 8 ^ ^ W ^ ",
"W W R R W W W R ^ 8 * h r.<.).`.R J W y R d R O W R ^ 8 ^ R W W ",
"W R R W W W R R R 8 & b ' #.)._.X o % & & & p % R R R 8 R R R W ",
"R R R R R R R R R 8 D y w.} h.!.'.'.OX'.|.}.].O R R R 8 R R R R ",
"R R R R R R R R 8 8 8 9 O = = = l c l g f - & R R R 8 8 8 R R R ",
"8 8 8 8 8 8 8 8 8 8 8 8 @ ; A h a./.a.(.u.0 8 8 8 8 8 8 8 8 8 8 ",
"8 ^ ^ ^ ^ ^ ^ ^ ^ ^ ^ # 2 > +.8.i.[ 8.:.p.G o 3 $ ^ ^ ^ ^ ^ 8 8 ",
"^ ^ ^ W ^ ^ ^ ^ ^ ^ 2 =XW 5Xk -.M.n.b.J.W.j.: 2X^ 6 ^ ^ ^ ^ ^ 8 ",
"^ ^ W W W W ^ W W W 1 4X3X*X0 M.x.v.E.F.S.y.o W ( 5 ^ W W ^ ^ 8 ",
"^ W W W W W W W W W 4 &XW >XK f ..h.' 5.-.m : *X7XD R W W W ^ 8 ",
"R W W W W W W R R W W E 1 > n h & = & +.x = + 3 6 W W R W W R 8 ",
"R R W W W W R R W W W R 7 ! n q 8 R < Z s , R W W R W W W R R 8 ",
"R R R W R R R R R W R R o o * R 8 R X . o + R R R R R W R R R 8 ",
"8 R R R R R R R R R R R R R R 8 8 8 R R R R R R R R R R R R 8 8 ",
"8 8 8 8 8 8 8 8 8 8 8 8 8 8 8 8 8 8 8 8 8 8 8 8 8 8 8 8 8 8 8 8 "
};
